<?xml version="1.0" standalone="no"?>
<!DOCTYPE svg PUBLIC "-//W3C//DTD SVG 20010904//EN"
 "http://www.w3.org/TR/2001/REC-SVG-20010904/DTD/svg10.dtd">
<svg version="1.0" xmlns="http://www.w3.org/2000/svg"
 width="512.000000pt" height="512.000000pt" viewBox="0 0 512.000000 512.000000"
 preserveAspectRatio="xMidYMid meet">

<g transform="translate(0.000000,512.000000) scale(0.100000,-0.100000)"
fill="#ffffff" stroke="none">
<path d="M2460 5109 c-698 -56 -1272 -377 -1614 -901 -95 -146 -173 -336 -242
-592 -33 -119 -36 -146 -41 -301 -6 -181 8 -322 47 -475 40 -158 140 -359 234
-471 132 -158 338 -294 442 -293 63 1 120 31 153 80 33 47 101 302 101 377 0
71 -14 106 -72 177 -120 149 -167 310 -155 538 16 322 141 607 362 828 166
166 357 267 625 331 108 26 478 26 599 0 439 -94 708 -378 761 -802 23 -177 1
-476 -51 -695 -90 -384 -278 -679 -505 -792 l-87 -43 -126 0 c-118 0 -129 2
-181 28 -144 74 -206 195 -180 356 6 42 47 193 90 336 137 454 167 600 157
759 -11 172 -78 302 -202 391 -142 101 -362 106 -540 12 -76 -40 -201 -163
-247 -242 -146 -253 -174 -596 -73 -898 24 -72 25 -77 10 -133 -36 -144 -318
-1338 -335 -1422 -44 -208 -56 -325 -69 -637 -9 -201 0 -434 19 -504 15 -58
96 -121 153 -121 113 0 377 357 547 739 70 158 101 255 182 571 38 151 74 279
78 284 5 5 22 -2 40 -17 73 -62 247 -144 369 -173 100 -25 346 -30 464 -10
317 54 564 179 801 406 365 350 586 936 586 1554 0 199 -11 302 -46 441 -81
317 -238 582 -480 808 -288 268 -612 425 -1014 492 -117 20 -405 27 -560 14z
m470 -210 c546 -60 1043 -393 1274 -855 52 -105 108 -265 133 -384 22 -104 24
-432 4 -580 -63 -470 -213 -818 -472 -1093 -414 -442 -1089 -541 -1445 -212
-38 35 -79 91 -134 184 l-79 133 -10 -38 c-5 -22 -62 -241 -125 -489 -128
-501 -151 -579 -208 -709 -93 -213 -231 -449 -318 -546 l-31 -35 5 260 c6 284
16 410 47 585 17 100 196 867 336 1444 l45 188 -35 112 c-20 61 -41 142 -48
180 -15 88 -6 289 16 376 58 224 211 384 381 398 219 17 335 -133 304 -392
-14 -116 -43 -231 -136 -540 -92 -304 -114 -398 -114 -498 0 -197 111 -374
293 -463 175 -85 404 -83 582 8 222 112 420 362 538 677 90 240 139 533 139
825 0 313 -71 545 -229 752 -210 277 -539 429 -968 449 -516 25 -976 -175
-1262 -546 -223 -291 -330 -643 -302 -998 15 -192 69 -341 174 -480 30 -39 55
-76 55 -82 0 -6 -14 -64 -32 -130 l-31 -120 -47 26 c-66 36 -187 140 -242 209
-55 68 -137 230 -167 331 -32 107 -51 236 -58 384 -6 151 8 242 68 440 91 298
209 500 409 700 402 403 1035 601 1690 529z"/>
</g>
</svg>
