<?xml version="1.0" standalone="no"?>
<!DOCTYPE svg PUBLIC "-//W3C//DTD SVG 20010904//EN"
 "http://www.w3.org/TR/2001/REC-SVG-20010904/DTD/svg10.dtd">
<svg version="1.0" xmlns="http://www.w3.org/2000/svg"
 width="512.000000pt" height="512.000000pt" viewBox="0 0 512.000000 512.000000"
 preserveAspectRatio="xMidYMid meet">

<g transform="translate(0.000000,512.000000) scale(0.100000,-0.100000)"
fill="#ffffff" stroke="none">
<path d="M1972 5105 c-331 -58 -614 -270 -766 -573 -40 -79 -83 -218 -97 -312
-16 -110 -6 -302 20 -402 74 -285 259 -526 514 -668 l57 -32 0 -424 c0 -233
-3 -424 -6 -424 -4 0 -40 31 -80 70 -114 108 -217 150 -369 150 -232 0 -431
-146 -496 -365 -42 -139 -21 -314 52 -430 17 -28 232 -252 478 -500 l448 -450
138 -320 c75 -176 146 -335 157 -353 11 -18 37 -41 59 -52 37 -19 63 -20 963
-20 629 0 934 3 953 11 59 22 82 57 123 189 207 661 290 1302 278 2152 -4 275
-7 308 -25 359 -78 211 -284 337 -493 301 -37 -6 -73 -14 -81 -17 -10 -4 -24
16 -47 65 -83 177 -282 285 -470 252 -38 -6 -76 -14 -84 -17 -11 -5 -21 8 -37
48 -12 30 -44 82 -70 114 l-48 60 47 97 c194 395 116 873 -194 1188 -132 134
-312 238 -491 284 -127 32 -310 40 -433 19z m393 -319 c209 -68 377 -215 465
-410 45 -100 63 -186 63 -306 -1 -149 -33 -265 -109 -391 -31 -51 -38 -57 -76
-62 -24 -4 -57 -9 -74 -13 l-32 -6 -4 278 c-4 250 -7 285 -25 335 -136 369
-621 415 -816 78 -53 -92 -57 -125 -57 -486 l0 -334 -41 33 c-91 73 -189 224
-229 353 -30 95 -37 264 -17 362 53 247 218 448 446 544 157 66 350 75 506 25z
m-137 -593 c14 -11 35 -32 46 -47 21 -27 21 -39 26 -831 5 -793 5 -804 26
-832 63 -85 180 -80 248 11 20 26 21 44 26 381 5 338 6 355 26 382 63 85 180
80 248 -11 20 -26 21 -44 26 -381 5 -338 6 -355 26 -382 63 -85 180 -80 248
11 19 25 21 45 26 231 5 186 7 206 26 232 63 85 180 80 248 -11 19 -25 21 -45
26 -229 5 -213 9 -229 56 -266 89 -70 224 -9 239 106 13 105 63 158 150 158
58 0 91 -18 129 -69 20 -27 21 -38 20 -464 -1 -534 -16 -752 -80 -1137 -40
-242 -93 -465 -170 -727 -5 -17 -52 -18 -802 -18 l-797 0 -130 303 -130 302
-466 470 c-461 464 -467 471 -484 529 -15 51 -16 67 -5 114 14 62 61 122 121
153 50 25 140 25 194 0 25 -12 109 -89 220 -201 99 -100 198 -191 219 -202 67
-34 139 -13 190 56 21 27 21 36 26 1166 5 1132 5 1139 26 1167 46 63 143 80
202 36z"/>
</g>
</svg>
