<?xml version="1.0" standalone="no"?>
<!DOCTYPE svg PUBLIC "-//W3C//DTD SVG 20010904//EN"
 "http://www.w3.org/TR/2001/REC-SVG-20010904/DTD/svg10.dtd">
<svg version="1.0" xmlns="http://www.w3.org/2000/svg"
 width="512.000000pt" height="512.000000pt" viewBox="0 0 512.000000 512.000000"
 preserveAspectRatio="xMidYMid meet">

<g transform="translate(0.000000,512.000000) scale(0.100000,-0.100000)"
fill="#c70101" stroke="none">
<path d="M2380 5114 c-19 -2 -78 -9 -130 -14 -330 -36 -695 -160 -990 -336
-375 -224 -680 -529 -904 -904 -175 -292 -291 -632 -338 -990 -16 -123 -16
-497 0 -620 82 -623 356 -1150 820 -1581 256 -239 575 -425 922 -539 274 -91
491 -124 800 -124 228 0 329 9 530 50 689 141 1304 583 1674 1204 175 292 291
632 338 990 16 123 16 497 0 620 -47 358 -163 698 -338 990 -224 375 -529 680
-904 904 -289 173 -634 291 -980 336 -88 12 -438 21 -500 14z m450 -329 c259
-31 482 -98 720 -216 237 -118 415 -246 594 -425 296 -296 510 -681 602 -1083
90 -394 68 -831 -62 -1222 -45 -135 -170 -390 -249 -509 -170 -253 -392 -475
-645 -645 -119 -79 -374 -204 -509 -249 -469 -156 -973 -156 -1442 0 -135 45
-390 170 -509 249 -253 170 -475 392 -645 645 -79 119 -204 374 -249 509 -156
469 -156 973 0 1442 45 135 170 390 249 509 170 253 392 475 645 645 199 133
505 262 745 315 226 49 520 63 755 35z"/>
<path d="M1882 2937 l-672 -672 112 -113 113 -112 562 562 563 563 563 -563
562 -562 113 113 112 112 -673 673 c-369 369 -674 672 -677 672 -3 0 -308
-303 -678 -673z"/>
</g>
</svg>
